<mxfile host="app.diagrams.net" modified="2021-09-11T21:59:54.101Z" agent="5.0 (Windows)" etag="4pm1LIZlLtD-i7nnOaL0" version="15.1.4" type="github">
  <diagram id="S53YNt7mgMLGlxEiQlAC" name="Page-1">
    <mxGraphModel dx="2564" dy="783" grid="1" gridSize="10" guides="1" tooltips="1" connect="1" arrows="1" fold="1" page="1" pageScale="1" pageWidth="850" pageHeight="1100" math="0" shadow="0">
      <root>
        <mxCell id="0" />
        <mxCell id="1" parent="0" />
        <mxCell id="kA3Zo333S0l8EvGmQA6P-6" style="edgeStyle=orthogonalEdgeStyle;rounded=0;orthogonalLoop=1;jettySize=auto;html=1;entryX=0.75;entryY=1;entryDx=0;entryDy=0;" edge="1" parent="1" source="kA3Zo333S0l8EvGmQA6P-2" target="kA3Zo333S0l8EvGmQA6P-5">
          <mxGeometry relative="1" as="geometry" />
        </mxCell>
        <mxCell id="kA3Zo333S0l8EvGmQA6P-7" value="&lt;div&gt;Move&lt;/div&gt;" style="edgeLabel;html=1;align=center;verticalAlign=middle;resizable=0;points=[];" vertex="1" connectable="0" parent="kA3Zo333S0l8EvGmQA6P-6">
          <mxGeometry x="-0.175" y="-2" relative="1" as="geometry">
            <mxPoint as="offset" />
          </mxGeometry>
        </mxCell>
        <mxCell id="kA3Zo333S0l8EvGmQA6P-2" value="Server" style="ellipse;shape=cloud;whiteSpace=wrap;html=1;" vertex="1" parent="1">
          <mxGeometry x="340" y="360" width="120" height="80" as="geometry" />
        </mxCell>
        <mxCell id="kA3Zo333S0l8EvGmQA6P-3" value="" style="rounded=0;whiteSpace=wrap;html=1;" vertex="1" parent="1">
          <mxGeometry x="260" y="150" width="120" height="60" as="geometry" />
        </mxCell>
        <mxCell id="kA3Zo333S0l8EvGmQA6P-4" value="" style="rounded=0;whiteSpace=wrap;html=1;" vertex="1" parent="1">
          <mxGeometry x="270" y="160" width="120" height="60" as="geometry" />
        </mxCell>
        <mxCell id="kA3Zo333S0l8EvGmQA6P-8" style="edgeStyle=orthogonalEdgeStyle;rounded=0;orthogonalLoop=1;jettySize=auto;html=1;exitX=0.25;exitY=1;exitDx=0;exitDy=0;entryX=0.07;entryY=0.4;entryDx=0;entryDy=0;entryPerimeter=0;" edge="1" parent="1" source="kA3Zo333S0l8EvGmQA6P-5" target="kA3Zo333S0l8EvGmQA6P-2">
          <mxGeometry relative="1" as="geometry" />
        </mxCell>
        <mxCell id="kA3Zo333S0l8EvGmQA6P-9" value="&lt;div&gt;Move&lt;/div&gt;" style="edgeLabel;html=1;align=center;verticalAlign=middle;resizable=0;points=[];" vertex="1" connectable="0" parent="kA3Zo333S0l8EvGmQA6P-8">
          <mxGeometry x="-0.022" y="-3" relative="1" as="geometry">
            <mxPoint as="offset" />
          </mxGeometry>
        </mxCell>
        <mxCell id="kA3Zo333S0l8EvGmQA6P-5" value="&lt;div&gt;Player&lt;/div&gt;" style="rounded=0;whiteSpace=wrap;html=1;" vertex="1" parent="1">
          <mxGeometry x="280" y="170" width="120" height="60" as="geometry" />
        </mxCell>
      </root>
    </mxGraphModel>
  </diagram>
</mxfile>
